<svg xmlns="http://www.w3.org/2000/svg" viewBox="0 0 114.82107 78.34121">
  <defs>
    <style>
      .cls-1 {
        fill: #fff;
      }

      .cls-2 {
        fill: #b3b3b3;
      }

      .cls-3 {
        fill: #568db3;
      }

      .cls-4 {
        fill: #ffffd7;
      }
    </style>
  </defs>
  <g id="Calque_2" data-name="Calque 2">
    <g id="fond">
      <g>
        <rect class="cls-1" x="6.04418" y="60.20868" width="6.04418" height="6.04418" rx="3.02208" transform="translate(72.29703 54.16451) rotate(90)"/>
        <rect class="cls-1" x="6.04418" y="66.25286" width="6.04418" height="6.04418" rx="3.02208" transform="translate(78.34121 60.20868) rotate(90)"/>
        <rect class="cls-1" x="6.04418" y="72.29703" width="6.04418" height="6.04418" rx="3.02208" transform="translate(84.38538 66.25286) rotate(90)"/>
        <rect class="cls-1" x="6.04418" y="48.12033" width="6.04418" height="6.04418" rx="3.02208" transform="translate(60.20868 42.07615) rotate(90)"/>
        <rect class="cls-1" x="6.04418" y="54.16453" width="6.04418" height="6.04418" rx="3.02208" transform="translate(66.25288 48.12035) rotate(90)"/>
        <rect class="cls-1" x="6.04418" y="42.07615" width="6.04418" height="6.04418" rx="3.02208" transform="translate(54.16451 36.03198) rotate(90)"/>
        <rect class="cls-1" x="6.04418" y="36.03198" width="6.04418" height="6.04418" rx="3.02208" transform="translate(48.12033 29.9878) rotate(90)"/>
        <rect class="cls-1" x="12.06995" y="60.20868" width="6.04418" height="6.04418" rx="3.02208" transform="translate(78.32281 48.13873) rotate(90)"/>
        <rect class="cls-1" x="12.06995" y="66.25286" width="6.04418" height="6.04418" rx="3.02208" transform="translate(84.36698 54.18291) rotate(90)"/>
        <rect class="cls-1" x="12.06995" y="72.29703" width="6.04418" height="6.04418" rx="3.02208" transform="translate(90.41116 60.22708) rotate(90)"/>
        <rect class="cls-1" x="12.06995" y="48.12033" width="6.04418" height="6.04418" rx="3.02208" transform="translate(66.23446 36.05038) rotate(90)"/>
        <rect class="cls-1" x="12.06995" y="54.16453" width="6.04418" height="6.04418" rx="3.02208" transform="translate(72.27865 42.09458) rotate(90)"/>
        <rect class="cls-1" x="12.06995" y="42.07615" width="6.04418" height="6.04418" rx="3.02208" transform="translate(60.19028 30.0062) rotate(90)"/>
        <rect class="cls-1" x="12.06995" y="36.03198" width="6.04418" height="6.04418" rx="3.02208" transform="translate(54.14611 23.96203) rotate(90)"/>
        <rect class="cls-1" y="60.20868" width="6.04418" height="6.04418" rx="3.02208" transform="translate(66.25286 60.20868) rotate(90)"/>
        <rect class="cls-1" y="66.25286" width="6.04418" height="6.04418" rx="3.02208" transform="translate(72.29703 66.25286) rotate(90)"/>
        <rect class="cls-1" y="72.29703" width="6.04418" height="6.04418" rx="3.02208" transform="translate(78.34121 72.29703) rotate(90)"/>
        <rect class="cls-1" y="48.12033" width="6.04418" height="6.04418" rx="3.02208" transform="translate(54.16451 48.12033) rotate(90)"/>
        <rect class="cls-1" y="54.16453" width="6.04418" height="6.04418" rx="3.02208" transform="translate(60.2087 54.16453) rotate(90)"/>
        <rect class="cls-1" y="42.07615" width="6.04418" height="6.04418" rx="3.02208" transform="translate(48.12033 42.07615) rotate(90)"/>
        <rect class="cls-1" y="36.03198" width="6.04418" height="6.04418" rx="3.02208" transform="translate(42.07615 36.03198) rotate(90)"/>
        <rect class="cls-1" x="6.04418" y="29.9878" width="6.04418" height="6.04418" rx="3.02208" transform="translate(42.07616 23.94363) rotate(90)"/>
        <rect class="cls-1" x="6.04418" y="23.94363" width="6.04418" height="6.04418" rx="3.02208" transform="translate(36.03198 17.89945) rotate(90)"/>
        <rect class="cls-1" x="12.06995" y="29.9878" width="6.04418" height="6.04418" rx="3.02208" transform="translate(48.10193 17.91785) rotate(90)"/>
        <rect class="cls-1" x="12.06995" y="23.94363" width="6.04418" height="6.04418" rx="3.02208" transform="translate(42.05775 11.87368) rotate(90)"/>
        <rect class="cls-1" y="29.9878" width="6.04418" height="6.04418" rx="3.02208" transform="translate(36.03198 29.9878) rotate(90)"/>
        <rect class="cls-1" y="23.94363" width="6.04418" height="6.04418" rx="3.02208" transform="translate(29.9878 23.94363) rotate(90)"/>
        <rect class="cls-1" x="6.04418" y="17.89945" width="6.04418" height="6.04418" rx="3.02208" transform="translate(29.9878 11.85528) rotate(90)"/>
        <rect class="cls-1" x="6.04418" y="11.85528" width="6.04418" height="6.04418" rx="3.02208" transform="translate(23.94363 5.8111) rotate(90)"/>
        <rect class="cls-1" x="12.06995" y="17.89945" width="6.04418" height="6.04418" rx="3.02208" transform="translate(36.01358 5.8295) rotate(90)"/>
        <rect class="cls-1" x="12.06995" y="11.85528" width="6.04418" height="6.04418" rx="3.02208" transform="translate(29.9694 -0.21467) rotate(90)"/>
        <rect class="cls-1" y="17.89945" width="6.04418" height="6.04418" rx="3.02208" transform="translate(23.94363 17.89945) rotate(90)"/>
        <rect class="cls-1" y="11.85528" width="6.04418" height="6.04418" rx="3.02208" transform="translate(17.89945 11.85528) rotate(90)"/>
        <rect class="cls-2" x="30.22099" y="60.20868" width="6.04418" height="6.04418" rx="3.02208" transform="translate(96.47385 29.98769) rotate(90)"/>
        <rect class="cls-2" x="30.22099" y="66.25286" width="6.04418" height="6.04418" rx="3.02208" transform="translate(102.51802 36.03187) rotate(90)"/>
        <rect class="cls-2" x="30.22099" y="72.29703" width="6.04418" height="6.04418" rx="3.02208" transform="translate(108.5622 42.07604) rotate(90)"/>
        <rect class="cls-2" x="30.22099" y="48.12033" width="6.04418" height="6.04418" rx="3.02208" transform="translate(84.3855 17.89934) rotate(90)"/>
        <rect class="cls-2" x="30.22099" y="54.16453" width="6.04418" height="6.04418" rx="3.02208" transform="translate(90.42969 23.94354) rotate(90)"/>
        <rect class="cls-2" x="30.22099" y="42.07615" width="6.04418" height="6.04418" rx="3.02208" transform="translate(78.34132 11.85517) rotate(90)"/>
        <rect class="cls-2" x="30.22099" y="36.03198" width="6.04418" height="6.04418" rx="3.02208" transform="translate(72.29714 5.81099) rotate(90)"/>
        <rect class="cls-2" x="30.22099" y="29.9878" width="6.04418" height="6.04418" rx="3.02208" transform="translate(66.25297 -0.23319) rotate(90)"/>
        <rect class="cls-2" x="30.22099" y="23.94363" width="6.04418" height="6.04418" rx="3.02208" transform="translate(60.20879 -6.27736) rotate(90)"/>
        <rect class="cls-2" x="30.22099" y="18.01599" width="6.04418" height="6.04418" rx="3.02208" transform="translate(54.28115 -12.205) rotate(90)"/>
        <rect class="cls-2" x="36.24676" y="60.20868" width="6.04418" height="6.04418" rx="3.02208" transform="translate(102.49962 23.96192) rotate(90)"/>
        <rect class="cls-2" x="36.24676" y="66.25286" width="6.04418" height="6.04418" rx="3.02208" transform="translate(108.5438 30.00609) rotate(90)"/>
        <rect class="cls-2" x="36.24676" y="72.29703" width="6.04418" height="6.04418" rx="3.02208" transform="translate(114.58797 36.05027) rotate(90)"/>
        <rect class="cls-2" x="36.24676" y="48.12033" width="6.04418" height="6.04418" rx="3.02208" transform="translate(90.41127 11.87357) rotate(90)"/>
        <rect class="cls-2" x="36.24676" y="54.16453" width="6.04418" height="6.04418" rx="3.02208" transform="translate(96.45547 17.91776) rotate(90)"/>
        <rect class="cls-2" x="36.24676" y="42.07615" width="6.04418" height="6.04418" rx="3.02208" transform="translate(84.36709 5.82939) rotate(90)"/>
        <rect class="cls-2" x="36.24676" y="36.03198" width="6.04418" height="6.04418" rx="3.02208" transform="translate(78.32292 -0.21479) rotate(90)"/>
        <rect class="cls-2" x="36.24676" y="29.9878" width="6.04418" height="6.04418" rx="3.02208" transform="translate(72.27874 -6.25896) rotate(90)"/>
        <rect class="cls-2" x="36.24676" y="23.94363" width="6.04418" height="6.04418" rx="3.02208" transform="translate(66.23457 -12.30314) rotate(90)"/>
        <rect class="cls-2" x="36.24676" y="18.01599" width="6.04418" height="6.04418" rx="3.02208" transform="translate(60.30693 -18.23077) rotate(90)"/>
        <rect class="cls-2" x="24.17681" y="60.20868" width="6.04418" height="6.04418" rx="3.02208" transform="translate(90.42967 36.03187) rotate(90)"/>
        <rect class="cls-2" x="24.17681" y="66.25286" width="6.04418" height="6.04418" rx="3.02208" transform="translate(96.47385 42.07604) rotate(90)"/>
        <rect class="cls-2" x="24.17681" y="72.29703" width="6.04418" height="6.04418" rx="3.02208" transform="translate(102.51802 48.12022) rotate(90)"/>
        <rect class="cls-2" x="24.17681" y="48.12033" width="6.04418" height="6.04418" rx="3.02208" transform="translate(78.34132 23.94352) rotate(90)"/>
        <rect class="cls-2" x="24.17681" y="54.16453" width="6.04418" height="6.04418" rx="3.02208" transform="translate(84.38552 29.98771) rotate(90)"/>
        <rect class="cls-2" x="24.17681" y="42.07615" width="6.04418" height="6.04418" rx="3.02208" transform="translate(72.29714 17.89934) rotate(90)"/>
        <rect class="cls-2" x="24.17681" y="36.03198" width="6.04418" height="6.04418" rx="3.02208" transform="translate(66.25297 11.85517) rotate(90)"/>
        <rect class="cls-2" x="24.17681" y="29.9878" width="6.04418" height="6.04418" rx="3.02208" transform="translate(60.20879 5.81099) rotate(90)"/>
        <rect class="cls-2" x="24.17681" y="23.94363" width="6.04418" height="6.04418" rx="3.02208" transform="translate(54.16462 -0.23319) rotate(90)"/>
        <rect class="cls-2" x="24.17681" y="18.01599" width="6.04418" height="6.04418" rx="3.02208" transform="translate(48.23698 -6.16082) rotate(90)"/>
        <rect class="cls-2" x="30.22099" width="6.04418" height="6.04418" rx="3.02208" transform="translate(36.26517 -30.22099) rotate(90)"/>
        <rect class="cls-2" x="30.22099" y="6.04418" width="6.04418" height="6.04418" rx="3.02208" transform="translate(42.30934 -24.17681) rotate(90)"/>
        <rect class="cls-2" x="30.22099" y="12.08835" width="6.04418" height="6.04418" rx="3.02208" transform="translate(48.35352 -18.13264) rotate(90)"/>
        <rect class="cls-2" x="36.24676" width="6.04418" height="6.04418" rx="3.02208" transform="translate(42.29094 -36.24676) rotate(90)"/>
        <rect class="cls-2" x="36.24676" y="6.04418" width="6.04418" height="6.04418" rx="3.02208" transform="translate(48.33512 -30.20259) rotate(90)"/>
        <rect class="cls-2" x="36.24676" y="12.08835" width="6.04418" height="6.04418" rx="3.02208" transform="translate(54.37929 -24.15841) rotate(90)"/>
        <rect class="cls-2" x="24.17681" width="6.04418" height="6.04418" rx="3.02208" transform="translate(30.22099 -24.17681) rotate(90)"/>
        <rect class="cls-2" x="24.17681" y="6.04418" width="6.04418" height="6.04418" rx="3.02208" transform="translate(36.26517 -18.13264) rotate(90)"/>
        <rect class="cls-2" x="24.17681" y="12.08835" width="6.04418" height="6.04418" rx="3.02208" transform="translate(42.30934 -12.08846) rotate(90)"/>
        <rect class="cls-3" x="54.3977" y="60.20868" width="6.04418" height="6.04418" rx="3.02208" transform="translate(120.65056 5.81098) rotate(90)"/>
        <rect class="cls-3" x="54.3977" y="66.25286" width="6.04418" height="6.04418" rx="3.02208" transform="translate(126.69473 11.85516) rotate(90)"/>
        <rect class="cls-3" x="54.3977" y="72.29703" width="6.04418" height="6.04418" rx="3.02208" transform="translate(132.73891 17.89933) rotate(90)"/>
        <rect class="cls-3" x="54.3977" y="48.12033" width="6.04418" height="6.04418" rx="3.02208" transform="translate(108.56221 -6.27737) rotate(90)"/>
        <rect class="cls-3" x="54.3977" y="54.16453" width="6.04418" height="6.04418" rx="3.02208" transform="translate(114.6064 -0.23317) rotate(90)"/>
        <rect class="cls-3" x="54.3977" y="42.07615" width="6.04418" height="6.04418" rx="3.02208" transform="translate(102.51803 -12.32154) rotate(90)"/>
        <rect class="cls-3" x="54.3977" y="36.03198" width="6.04418" height="6.04418" rx="3.02208" transform="translate(96.47385 -18.36572) rotate(90)"/>
        <rect class="cls-3" x="54.3977" y="29.9878" width="6.04418" height="6.04418" rx="3.02208" transform="translate(90.42968 -24.4099) rotate(90)"/>
        <rect class="cls-3" x="54.3977" y="23.94363" width="6.04418" height="6.04418" rx="3.02208" transform="translate(84.3855 -30.45407) rotate(90)"/>
        <rect class="cls-3" x="60.42347" y="60.20868" width="6.04418" height="6.04418" rx="3.02208" transform="translate(126.67633 -0.21479) rotate(90)"/>
        <rect class="cls-3" x="60.42347" y="66.25286" width="6.04418" height="6.04418" rx="3.02208" transform="translate(132.72051 5.82938) rotate(90)"/>
        <rect class="cls-3" x="60.42347" y="72.29703" width="6.04418" height="6.04418" rx="3.02208" transform="translate(138.76468 11.87356) rotate(90)"/>
        <rect class="cls-3" x="60.42347" y="48.12033" width="6.04418" height="6.04418" rx="3.02208" transform="translate(114.58798 -12.30314) rotate(90)"/>
        <rect class="cls-3" x="60.42347" y="54.16453" width="6.04418" height="6.04418" rx="3.02208" transform="translate(120.63218 -6.25895) rotate(90)"/>
        <rect class="cls-3" x="60.42347" y="42.07615" width="6.04418" height="6.04418" rx="3.02208" transform="translate(108.5438 -18.34732) rotate(90)"/>
        <rect class="cls-3" x="60.42347" y="36.03198" width="6.04418" height="6.04418" rx="3.02208" transform="translate(102.49963 -24.3915) rotate(90)"/>
        <rect class="cls-3" x="60.42347" y="29.9878" width="6.04418" height="6.04418" rx="3.02208" transform="translate(96.45545 -30.43567) rotate(90)"/>
        <rect class="cls-3" x="60.42347" y="23.94363" width="6.04418" height="6.04418" rx="3.02208" transform="translate(90.41128 -36.47985) rotate(90)"/>
        <rect class="cls-3" x="48.35352" y="60.20868" width="6.04418" height="6.04418" rx="3.02208" transform="translate(114.60638 11.85516) rotate(90)"/>
        <rect class="cls-3" x="48.35352" y="66.25286" width="6.04418" height="6.04418" rx="3.02208" transform="translate(120.65056 17.89933) rotate(90)"/>
        <rect class="cls-3" x="48.35352" y="72.29703" width="6.04418" height="6.04418" rx="3.02208" transform="translate(126.69473 23.94351) rotate(90)"/>
        <rect class="cls-3" x="48.35352" y="48.12033" width="6.04418" height="6.04418" rx="3.02208" transform="translate(102.51803 -0.23319) rotate(90)"/>
        <rect class="cls-3" x="48.35352" y="54.16453" width="6.04418" height="6.04418" rx="3.02208" transform="translate(108.56223 5.811) rotate(90)"/>
        <rect class="cls-3" x="48.35352" y="42.07615" width="6.04418" height="6.04418" rx="3.02208" transform="translate(96.47385 -6.27737) rotate(90)"/>
        <rect class="cls-3" x="48.35352" y="36.03198" width="6.04418" height="6.04418" rx="3.02208" transform="translate(90.42968 -12.32154) rotate(90)"/>
        <rect class="cls-3" x="48.35352" y="29.9878" width="6.04418" height="6.04418" rx="3.02208" transform="translate(84.3855 -18.36572) rotate(90)"/>
        <rect class="cls-3" x="48.35352" y="23.94363" width="6.04418" height="6.04418" rx="3.02208" transform="translate(78.34133 -24.4099) rotate(90)"/>
        <rect class="cls-1" x="78.57441" y="66.25286" width="6.04418" height="6.04418" rx="3.02208" transform="translate(150.87144 -12.32155) rotate(90)"/>
        <rect class="cls-1" x="78.57441" y="72.29703" width="6.04418" height="6.04418" rx="3.02208" transform="translate(156.91562 -6.27738) rotate(90)"/>
        <rect class="cls-1" x="84.60018" y="66.25286" width="6.04418" height="6.04418" rx="3.02208" transform="translate(156.89722 -18.34733) rotate(90)"/>
        <rect class="cls-1" x="84.60018" y="72.29703" width="6.04418" height="6.04418" rx="3.02208" transform="translate(162.94139 -12.30315) rotate(90)"/>
        <rect class="cls-1" x="72.53023" y="66.25286" width="6.04418" height="6.04418" rx="3.02208" transform="translate(144.82727 -6.27738) rotate(90)"/>
        <rect class="cls-1" x="78.57441" y="60.20868" width="6.04418" height="6.04418" rx="3.02208" transform="translate(144.82727 -18.36573) rotate(90)"/>
        <rect class="cls-1" x="84.60018" y="60.20868" width="6.04418" height="6.04418" rx="3.02208" transform="translate(150.85304 -24.3915) rotate(90)"/>
        <rect class="cls-1" x="72.53023" y="60.20868" width="6.04418" height="6.04418" rx="3.02208" transform="translate(138.78309 -12.32155) rotate(90)"/>
        <rect class="cls-1" x="78.57441" y="54.16451" width="6.04418" height="6.04418" rx="3.02208" transform="translate(138.78309 -24.4099) rotate(90)"/>
        <rect class="cls-1" x="84.60018" y="54.16451" width="6.04418" height="6.04418" rx="3.02208" transform="translate(144.80887 -30.43568) rotate(90)"/>
        <rect class="cls-1" x="72.53023" y="54.16451" width="6.04418" height="6.04418" rx="3.02208" transform="translate(132.73892 -18.36573) rotate(90)"/>
        <rect class="cls-1" x="72.53023" y="72.29703" width="6.04418" height="6.04418" rx="3.02208" transform="translate(150.87144 -0.2332) rotate(90)"/>
        <rect class="cls-4" x="102.75112" y="60.20868" width="6.04418" height="6.04418" rx="3.02208" transform="translate(169.00398 -42.54244) rotate(90)"/>
        <rect class="cls-4" x="102.75112" y="66.25286" width="6.04418" height="6.04418" rx="3.02208" transform="translate(175.04815 -36.49826) rotate(90)"/>
        <rect class="cls-4" x="102.75112" y="72.29703" width="6.04418" height="6.04418" rx="3.02208" transform="translate(181.09233 -30.45409) rotate(90)"/>
        <rect class="cls-4" x="102.75112" y="48.12033" width="6.04418" height="6.04418" rx="3.02208" transform="translate(156.91563 -54.63079) rotate(90)"/>
        <rect class="cls-4" x="102.75112" y="54.16453" width="6.04418" height="6.04418" rx="3.02208" transform="translate(162.95982 -48.58659) rotate(90)"/>
        <rect class="cls-4" x="102.75112" y="42.07615" width="6.04418" height="6.04418" rx="3.02208" transform="translate(150.87145 -60.67496) rotate(90)"/>
        <rect class="cls-4" x="102.75112" y="36.03198" width="6.04418" height="6.04418" rx="3.02208" transform="translate(144.82727 -66.71914) rotate(90)"/>
        <rect class="cls-4" x="108.77689" y="60.20868" width="6.04418" height="6.04418" rx="3.02208" transform="translate(175.02975 -48.56821) rotate(90)"/>
        <rect class="cls-4" x="108.77689" y="66.25286" width="6.04418" height="6.04418" rx="3.02208" transform="translate(181.07393 -42.52404) rotate(90)"/>
        <rect class="cls-4" x="108.77689" y="72.29703" width="6.04418" height="6.04418" rx="3.02208" transform="translate(187.1181 -36.47986) rotate(90)"/>
        <rect class="cls-4" x="108.77689" y="48.12033" width="6.04418" height="6.04418" rx="3.02208" transform="translate(162.9414 -60.65656) rotate(90)"/>
        <rect class="cls-4" x="108.77689" y="54.16453" width="6.04418" height="6.04418" rx="3.02208" transform="translate(168.9856 -54.61237) rotate(90)"/>
        <rect class="cls-4" x="108.77689" y="42.07615" width="6.04418" height="6.04418" rx="3.02208" transform="translate(156.89722 -66.70074) rotate(90)"/>
        <rect class="cls-4" x="108.77689" y="36.03198" width="6.04418" height="6.04418" rx="3.02208" transform="translate(150.85305 -72.74491) rotate(90)"/>
        <rect class="cls-4" x="96.70694" y="60.20868" width="6.04418" height="6.04418" rx="3.02208" transform="translate(162.9598 -36.49826) rotate(90)"/>
        <rect class="cls-4" x="96.70694" y="66.25286" width="6.04418" height="6.04418" rx="3.02208" transform="translate(169.00398 -30.45409) rotate(90)"/>
        <rect class="cls-4" x="96.70694" y="72.29703" width="6.04418" height="6.04418" rx="3.02208" transform="translate(175.04815 -24.40991) rotate(90)"/>
        <rect class="cls-4" x="96.70694" y="48.12033" width="6.04418" height="6.04418" rx="3.02208" transform="translate(150.87145 -48.58661) rotate(90)"/>
        <rect class="cls-4" x="96.70694" y="54.16453" width="6.04418" height="6.04418" rx="3.02208" transform="translate(156.91565 -42.54242) rotate(90)"/>
        <rect class="cls-4" x="96.70694" y="42.07615" width="6.04418" height="6.04418" rx="3.02208" transform="translate(144.82727 -54.63079) rotate(90)"/>
        <rect class="cls-4" x="96.70694" y="36.03198" width="6.04418" height="6.04418" rx="3.02208" transform="translate(138.7831 -60.67496) rotate(90)"/>
      </g>
    </g>
  </g>
</svg>
