<svg xmlns="http://www.w3.org/2000/svg" viewBox="0 0 168.83216 48.76239">
  <defs>
    <style>
      .cls-1 {
        fill: #568db3;
      }
    </style>
  </defs>
  <g id="Calque_2" data-name="Calque 2">
    <g id="fond">
      <g>
        <g>
          <rect class="cls-1" y="40.2273" width="3.83546" height="3.83546" rx="1.91773" transform="translate(44.06276 40.2273) rotate(90)"/>
          <rect class="cls-1" x="3.87393" y="36.35336" width="3.83546" height="3.83546" rx="1.91773" transform="translate(44.06276 32.47943) rotate(90)"/>
          <rect class="cls-1" x="7.67092" y="36.35336" width="3.83546" height="3.83546" rx="1.91773" transform="translate(47.85974 28.68244) rotate(90)"/>
          <rect class="cls-1" x="3.87393" y="32.55638" width="3.83546" height="3.83546" rx="1.91773" transform="translate(40.26577 28.68244) rotate(90)"/>
          <rect class="cls-1" x="3.83546" y="40.2273" width="3.83546" height="3.83546" rx="1.91773" transform="translate(47.89822 36.39184) rotate(90)"/>
          <rect class="cls-1" x="7.67092" y="40.2273" width="3.83546" height="3.83546" rx="1.91773" transform="translate(51.73368 32.55638) rotate(90)"/>
          <rect class="cls-1" x="11.50638" y="40.2273" width="3.83546" height="3.83546" rx="1.91773" transform="translate(55.56914 28.72092) rotate(90)"/>
          <rect class="cls-1" y="36.39184" width="3.83546" height="3.83546" rx="1.91773" transform="translate(40.2273 36.39184) rotate(90)"/>
          <rect class="cls-1" y="32.55638" width="3.83546" height="3.83546" rx="1.91773" transform="translate(36.39184 32.55638) rotate(90)"/>
          <rect class="cls-1" y="28.72092" width="3.83546" height="3.83546" rx="1.91773" transform="translate(32.55638 28.72092) rotate(90)"/>
          <rect class="cls-1" x="28.70947" width="3.83546" height="3.83546" rx="1.91773" transform="translate(32.54493 -28.70947) rotate(90)"/>
          <rect class="cls-1" x="40.20418" y="11.52872" width="3.83546" height="3.83546" rx="1.91773" transform="translate(55.56835 -28.67546) rotate(90)"/>
          <rect class="cls-1" x="7.52121" y="25.98903" width="40.28076" height="3.83546" transform="translate(-11.63117 27.7334) rotate(-45)"/>
          <rect class="cls-1" x="-2.87659" y="33.51524" width="9.58865" height="3.83546" transform="translate(-33.51524 37.3507) rotate(-90)"/>
          <rect class="cls-1" x="3.83546" y="40.2273" width="9.58865" height="3.83546"/>
          <rect class="cls-1" x="28.1335" y="5.74449" width="16.38019" height="3.83546" transform="translate(56.59025 38.76488) rotate(-135)"/>
          <rect class="cls-1" x="-3.54468" y="14.21281" width="39.89663" height="3.83546" transform="translate(-6.6015 16.32365) rotate(-45)"/>
        </g>
        <g>
          <rect x="81.62894" y="29.49056" width="3.83546" height="3.83546" rx="1.91773" transform="translate(114.95496 -52.13839) rotate(90)"/>
          <rect x="85.4644" y="29.49056" width="3.83546" height="3.83546" rx="1.91773" transform="translate(118.79042 -55.97385) rotate(90)"/>
          <rect x="77.79348" y="25.6551" width="3.83546" height="3.83546" rx="1.91773" transform="translate(107.28404 -52.13839) rotate(90)"/>
          <rect x="81.62894" y="25.6551" width="3.83546" height="3.83546" rx="1.91773" transform="translate(111.1195 -55.97385) rotate(90)"/>
          <rect x="85.4644" y="25.6551" width="3.83546" height="3.83546" rx="1.91773" transform="translate(114.95496 -59.80931) rotate(90)"/>
          <rect x="89.29986" y="25.6551" width="3.83546" height="3.83546" rx="1.91773" transform="translate(118.79042 -63.64477) rotate(90)"/>
          <rect x="77.79348" y="21.81964" width="3.83546" height="3.83546" rx="1.91773" transform="translate(103.44858 -55.97385) rotate(90)"/>
          <rect x="81.62894" y="21.81964" width="3.83546" height="3.83546" rx="1.91773" transform="translate(107.28404 -59.80931) rotate(90)"/>
          <rect x="85.4644" y="21.81964" width="3.83546" height="3.83546" rx="1.91773" transform="translate(111.1195 -63.64477) rotate(90)"/>
          <rect x="89.29986" y="21.81964" width="3.83546" height="3.83546" rx="1.91773" transform="translate(114.95496 -67.48023) rotate(90)"/>
          <rect x="81.62894" y="17.98418" width="3.83546" height="3.83546" rx="1.91773" transform="translate(103.44858 -63.64477) rotate(90)"/>
          <rect x="85.4644" y="17.98418" width="3.83546" height="3.83546" rx="1.91773" transform="translate(107.28404 -67.48023) rotate(90)"/>
          <rect x="61.22402" y="23.95728" width="3.83546" height="3.83546" rx="1.91773" transform="translate(126.08609 -0.47659) rotate(134.99996)"/>
          <path d="M65.85383,26.66936h0a1.91772,1.91772,0,0,1,1.91772,1.91772v0a1.91773,1.91773,0,0,1-1.91773,1.91773h0A1.91772,1.91772,0,0,1,63.9361,28.5871v0A1.91773,1.91773,0,0,1,65.85383,26.66936Z" transform="translate(132.63364 2.23552) rotate(134.99999)"/>
          <path d="M68.5659,29.38144h0a1.91773,1.91773,0,0,1,1.91773,1.91773v0a1.91772,1.91772,0,0,1-1.91772,1.91772h0a1.91773,1.91773,0,0,1-1.91773-1.91773v0A1.91773,1.91773,0,0,1,68.5659,29.38144Z" transform="translate(139.18119 4.94762) rotate(135.00001)"/>
          <rect x="69.36026" y="32.09352" width="3.83546" height="3.83546" rx="1.91773" transform="translate(145.72872 7.65968) rotate(134.99999)"/>
          <path d="M65.85383,21.2452h0a1.91772,1.91772,0,0,1,1.91772,1.91772v0a1.91773,1.91773,0,0,1-1.91773,1.91773h0a1.91772,1.91772,0,0,1-1.91772-1.91772v0A1.91773,1.91773,0,0,1,65.85383,21.2452Z" transform="translate(128.79818 -7.02409) rotate(135)"/>
          <path d="M68.5659,18.53312h0a1.91773,1.91773,0,0,1,1.91773,1.91773v0a1.91773,1.91773,0,0,1-1.91773,1.91773h0a1.91772,1.91772,0,0,1-1.91772-1.91772v0a1.91773,1.91773,0,0,1,1.91773-1.91773Z" transform="translate(131.51029 -13.57157) rotate(135.00005)"/>
          <rect x="69.36026" y="15.82104" width="3.83546" height="3.83546" rx="1.91773" transform="translate(134.22241 -20.11905) rotate(135.00011)"/>
          <rect x="73.15093" y="35.88419" width="3.83546" height="3.83546" rx="1.91773" transform="translate(154.88021 11.45037) rotate(135.00001)"/>
          <rect x="73.15093" y="12.03037" width="3.83546" height="3.83546" rx="1.91773" transform="translate(138.01306 -29.27059) rotate(135.00006)"/>
          <rect x="75.02019" y="35.88419" width="10.16521" height="3.83546"/>
          <rect x="62.30849" y="17.31581" width="14.94947" height="3.83546" transform="translate(6.83887 54.97756) rotate(-45)"/>
          <rect x="62.30849" y="30.59876" width="14.94947" height="3.83546" transform="translate(43.43166 -39.82033) rotate(45)"/>
          <rect x="75.06866" y="12.03037" width="10.06827" height="3.83546"/>
          <rect x="105.26285" y="23.95728" width="3.83546" height="3.83546" rx="1.91773" transform="translate(13.09606 83.36671) rotate(-44.99999)"/>
          <path d="M104.4685,21.2452h0a1.91773,1.91773,0,0,1,1.91773,1.91773v0a1.91773,1.91773,0,0,1-1.91773,1.91773h0a1.91773,1.91773,0,0,1-1.91773-1.91773v0A1.91772,1.91772,0,0,1,104.4685,21.2452Z" transform="translate(14.21938 80.65454) rotate(-44.99993)"/>
          <rect x="99.83869" y="18.53312" width="3.83546" height="3.83546" rx="1.91773" transform="translate(15.34282 77.94256) rotate(-44.99999)"/>
          <rect x="97.12661" y="15.82104" width="3.83546" height="3.83546" rx="1.91773" transform="translate(16.46623 75.23052) rotate(-45.00002)"/>
          <path d="M104.4685,26.66936h0a1.91773,1.91773,0,0,1,1.91773,1.91773v0a1.91772,1.91772,0,0,1-1.91772,1.91772h0a1.91773,1.91773,0,0,1-1.91773-1.91773v0a1.91773,1.91773,0,0,1,1.91773-1.91773Z" transform="translate(10.38393 82.24325) rotate(-44.99994)"/>
          <rect x="99.83869" y="29.38144" width="3.83546" height="3.83546" rx="1.91773" transform="translate(7.67195 81.12005) rotate(-45.00005)"/>
          <rect x="97.12661" y="32.09352" width="3.83546" height="3.83546" rx="1.91773" transform="translate(4.95977 79.99647) rotate(-44.99993)"/>
          <rect x="93.33594" y="12.03037" width="3.83546" height="3.83546" rx="1.91773" transform="translate(18.03638 71.43985) rotate(-45.00002)"/>
          <path d="M95.25367,35.88419h0a1.91773,1.91773,0,0,1,1.91773,1.91773v0a1.91772,1.91772,0,0,1-1.91772,1.91772h0a1.91773,1.91773,0,0,1-1.91773-1.91773v0a1.91773,1.91773,0,0,1,1.91773-1.91773Z" transform="translate(1.16913 78.42638) rotate(-44.99996)"/>
          <rect x="85.13693" y="12.03037" width="10.16521" height="3.83546" transform="translate(180.43907 27.89621) rotate(180)"/>
          <rect x="93.06437" y="30.59876" width="14.94947" height="3.83546" transform="translate(194.62362 -15.58277) rotate(135)"/>
          <rect x="93.06437" y="17.31581" width="14.94947" height="3.83546" transform="translate(158.03083 103.92559) rotate(-135)"/>
          <rect x="85.1854" y="35.88419" width="10.06827" height="3.83546" transform="translate(180.43907 75.60384) rotate(180)"/>
        </g>
        <g>
          <rect class="cls-1" x="159.61278" y="39.54309" width="3.83546" height="3.83546" rx="1.91773" transform="translate(202.99134 -120.06969) rotate(90)"/>
          <rect class="cls-1" x="159.61278" y="7.93164" width="3.83546" height="3.83546" rx="1.91773" transform="translate(171.37989 -151.68114) rotate(90)"/>
          <rect class="cls-1" x="133.25038" y="24.0844" width="3.83546" height="3.83546" rx="1.91773" transform="translate(161.17025 -109.16598) rotate(90)"/>
          <g>
            <rect class="cls-1" x="138.65751" y="16.34424" width="18.83128" height="2.54949" transform="translate(11.02855 76.39707) rotate(-30)"/>
            <rect class="cls-1" x="138.66026" y="32.42555" width="18.82577" height="2.54949" transform="translate(36.6359 -69.46514) rotate(29.97097)"/>
            <path class="cls-1" d="M135.1681,33.3039a7.30176,7.30176,0,1,1,7.30176-7.30176A7.30982,7.30982,0,0,1,135.1681,33.3039Zm0-11.60352a4.30176,4.30176,0,1,0,4.30176,4.30176A4.30654,4.30654,0,0,0,135.1681,21.70038Z"/>
            <path class="cls-1" d="M161.53041,17.15106a7.30176,7.30176,0,1,1,7.30175-7.30175A7.30971,7.30971,0,0,1,161.53041,17.15106Zm0-11.60351a4.30176,4.30176,0,1,0,4.30175,4.30176A4.30643,4.30643,0,0,0,161.53041,5.54755Z"/>
            <path class="cls-1" d="M161.53041,48.76239a7.30152,7.30152,0,1,1,7.30175-7.30176A7.30971,7.30971,0,0,1,161.53041,48.76239Zm0-11.603a4.30152,4.30152,0,1,0,4.30175,4.30127A4.30633,4.30633,0,0,0,161.53041,37.15936Z"/>
          </g>
        </g>
      </g>
    </g>
  </g>
</svg>
