<svg xmlns="http://www.w3.org/2000/svg" viewBox="0 0 334.94401 45.05901">
  <defs>
    <style>
      .cls-1, .cls-2 {
        fill: #9dbdd3;
      }

      .cls-2, .cls-4, .cls-5 {
        font-size: 12px;
        font-family: JetBrainsMono-ExtraBold, JetBrains Mono;
        font-weight: 800;
        letter-spacing: -0.00997em;
      }

      .cls-3, .cls-4 {
        fill: #ffffd7;
      }

      .cls-5 {
        fill: #fff;
      }
    </style>
  </defs>
  <g id="Calque_2" data-name="Calque 2">
    <g id="fond">
      <g>
        <g>
          <path class="cls-1" d="M310.4651,29.01215a.90663.90663,0,1,0-.90663-.90667A.90663.90663,0,0,0,310.4651,29.01215Z"/>
          <path class="cls-1" d="M312.27833,14.50609a.90263.90263,0,0,0,.64957-.27583l.00088.00088,1.53832-1.53831h8.69068a.90312.90312,0,0,0,.64538-.27074l.00047.00048,1.80387-1.80384-.0005-.00048a.90323.90323,0,0,0,.27067-.6453v0a.90306.90306,0,0,0-.2707-.6453l.00045-.00047-1.80386-1.80385-.00044.00044a.90314.90314,0,0,0-.64526-.27067h-6.87755l-.90663-.90666.90664-.90663h5.06428a.9033.9033,0,0,0,.64525-.27063l.00047.00048,1.80385-1.80389-.0005-.00047a.90457.90457,0,0,0,0-1.29071l.00046-.00044L321.99032.27026l-.00044.00044A.906.906,0,1,0,320.70862,1.552l-.00046.00043,1.16752,1.16752-.90661.90663h-5.06426a.90307.90307,0,0,0-.64534.2707l-.00047-.00047-1.80387,1.80384.00048.00048a.90461.90461,0,0,0,0,1.29064l-.00048.00047L315.259,8.79606l.00047-.00048a.90311.90311,0,0,0,.64534.27074h6.87744l.90667.90667-.90661.90659h-8.69074a.90379.90379,0,0,0-.64109.26554L311.64662,12.949l.00092.00095a.90258.90258,0,0,0-.27583.64952v0A.90663.90663,0,0,0,312.27833,14.50609Z"/>
          <path class="cls-1" d="M310.4651,34.45192a.90667.90667,0,1,0-.90663-.90667A.90663.90663,0,0,0,310.4651,34.45192Z"/>
          <path class="cls-1" d="M311.37171,35.35851a.90662.90662,0,1,0-.90661.90659A.90661.90661,0,0,0,311.37171,35.35851Z"/>
          <path class="cls-1" d="M313.185,29.91874a.90663.90663,0,1,0-.90663.90666A.90661.90661,0,0,0,313.185,29.91874Z"/>
          <circle class="cls-1" cx="312.27833" cy="33.54525" r="0.90665"/>
          <circle class="cls-1" cx="312.27833" cy="35.35851" r="0.90661"/>
          <circle class="cls-1" cx="312.27833" cy="37.17177" r="0.90665"/>
          <path class="cls-1" d="M314.09159,27.19889a.90663.90663,0,1,0,.90663.90659A.90662.90662,0,0,0,314.09159,27.19889Z"/>
          <circle class="cls-1" cx="314.09159" cy="33.54525" r="0.90665"/>
          <circle class="cls-1" cx="314.09159" cy="35.35851" r="0.90661"/>
          <circle class="cls-1" cx="314.09159" cy="37.17177" r="0.90665"/>
          <circle class="cls-1" cx="314.09159" cy="38.98502" r="0.90661"/>
          <path class="cls-1" d="M316.81148,29.91874a.90663.90663,0,1,0-.90663.90666A.90661.90661,0,0,0,316.81148,29.91874Z"/>
          <circle class="cls-1" cx="315.90485" cy="33.54525" r="0.90665"/>
          <circle class="cls-1" cx="315.90485" cy="35.35851" r="0.90661"/>
          <circle class="cls-1" cx="315.90485" cy="37.17177" r="0.90665"/>
          <circle class="cls-1" cx="315.90485" cy="38.98502" r="0.90661"/>
          <path class="cls-1" d="M317.7181,27.19889a.90663.90663,0,1,0,.90663.90659A.90661.90661,0,0,0,317.7181,27.19889Z"/>
          <circle class="cls-1" cx="317.7181" cy="33.54525" r="0.90665"/>
          <circle class="cls-1" cx="317.7181" cy="35.35851" r="0.90661"/>
          <circle class="cls-1" cx="317.7181" cy="37.17177" r="0.90665"/>
          <circle class="cls-1" cx="317.7181" cy="38.98502" r="0.90661"/>
          <path class="cls-1" d="M320.438,29.91874a.90662.90662,0,1,0-.90663.90666A.90661.90661,0,0,0,320.438,29.91874Z"/>
          <path class="cls-1" d="M318.62473,33.54525a.90662.90662,0,1,0,.90661-.90666A.90663.90663,0,0,0,318.62473,33.54525Z"/>
          <path class="cls-1" d="M318.62473,35.35851a.90662.90662,0,1,0,.90661-.90659A.90661.90661,0,0,0,318.62473,35.35851Z"/>
          <path class="cls-1" d="M320.438,37.17177a.90662.90662,0,1,0-.90663.90666A.90664.90664,0,0,0,320.438,37.17177Z"/>
          <path class="cls-1" d="M320.438,38.985a.90662.90662,0,1,0-.90663.90659A.90662.90662,0,0,0,320.438,38.985Z"/>
          <path class="cls-1" d="M321.3446,27.19889a.90663.90663,0,1,0,.90663.90659A.90662.90662,0,0,0,321.3446,27.19889Z"/>
          <circle class="cls-1" cx="321.3446" cy="33.54525" r="0.90665"/>
          <circle class="cls-1" cx="321.3446" cy="35.35851" r="0.90661"/>
          <circle class="cls-1" cx="321.3446" cy="37.17177" r="0.90665"/>
          <circle class="cls-1" cx="321.3446" cy="38.98502" r="0.90661"/>
          <path class="cls-1" d="M324.06449,29.91874a.90663.90663,0,1,0-.90663.90666A.90661.90661,0,0,0,324.06449,29.91874Z"/>
          <circle class="cls-1" cx="323.15786" cy="33.54525" r="0.90665"/>
          <circle class="cls-1" cx="323.15786" cy="35.35851" r="0.90661"/>
          <circle class="cls-1" cx="323.15786" cy="37.17177" r="0.90665"/>
          <circle class="cls-1" cx="323.15786" cy="38.98502" r="0.90661"/>
          <path class="cls-1" d="M324.97111,27.19889a.90663.90663,0,1,0,.90663.90659A.90661.90661,0,0,0,324.97111,27.19889Z"/>
          <circle class="cls-1" cx="324.97111" cy="33.54525" r="0.90665"/>
          <circle class="cls-1" cx="324.97111" cy="35.35851" r="0.90661"/>
          <circle class="cls-1" cx="324.97111" cy="37.17177" r="0.90665"/>
          <path class="cls-1" d="M334.944,28.10548l0-.00015V26.29244l0-.00022a.89851.89851,0,0,0-.21583-.58081l.00528-.00527-1.92325-1.92327-.00528.00528a.89846.89846,0,0,0-.58081-.21577h-2.71988V20.85245a.89868.89868,0,0,0-.21508-.57993l.00535-.00527L325.61229,16.585a.90372.90372,0,0,0-.64118-.26565H312.27833a.90381.90381,0,0,0-.64107.26557l-3.68232,3.68233.00535.00527a.89868.89868,0,0,0-.21508.57993V31.732h0v5.46065h.00211a.90173.90173,0,0,0,.27486.62959l-.01143.01142,3.62651,3.62652.01143-.01143a.9022.9022,0,0,0,.62964.25613h12.69278a.90581.90581,0,0,0,.75189-.39983l1.56813-1.56819a.91163.91163,0,0,0,.24509-.24507l1.56813-1.56811a.90581.90581,0,0,0,.39989-.7519V34.45192h2.71988a.89854.89854,0,0,0,.58083-.21585l.00526.00528.05489-.05494.0002-.00022,1.86816-1.86811-.00528-.00527a.89854.89854,0,0,0,.21583-.58082h0l0-.00014V29.919l0-.00022,0-.00015V28.1057Zm-3.09542,4.53311h-2.34435V31.732h0V25.38563h2.34435l1.28216,1.28211v4.68874Zm-6.03616,6.01267a.90564.90564,0,1,0-1.17508,1.175l-.06533.06533H312.633l-.05481-.05478a.9044.9044,0,1,0-1.15171-1.15166l-.222-.222a.91087.91087,0,0,0-.21758-.2176l-.222-.22192a.90447.90447,0,1,0-1.15174-1.15181l-.05478-.05479V31.732a2.02728,2.02728,0,0,1,2.71986.9066.90663.90663,0,0,1,1.81326,0,.90663.90663,0,0,1,1.81326,0,.90663.90663,0,0,1,1.81325,0,.90662.90662,0,0,1,1.81324,0,.90663.90663,0,0,1,1.81326,0,.90663.90663,0,0,1,1.81326,0,.90663.90663,0,0,1,1.81325,0,.90662.90662,0,0,1,1.81324,0,.90667.90667,0,0,0,0,1.81333.90659.90659,0,1,0,0,1.81318.90569.90569,0,0,0-.33376,1.748ZM312.65388,18.1326h11.94168l2.71991,2.71985-2.71989,2.71993H312.65387L309.934,20.85245Zm14.13049,10.87955h0a.90663.90663,0,0,0,0,1.81325.90662.90662,0,0,1-1.81324,0,.90663.90663,0,0,1-1.81325,0,.90663.90663,0,0,1-1.81326,0,.90663.90663,0,0,1-1.81326,0,.90662.90662,0,0,1-1.81324,0,.90663.90663,0,0,1-1.81325,0,.90663.90663,0,0,1-1.81326,0,.90663.90663,0,0,1-1.81326,0,.90662.90662,0,0,1-1.81323,0,.90662.90662,0,0,0-.90663.90659V23.0413l2.07879,2.07876a.90356.90356,0,0,0,.64107.26557h12.69278a.904.904,0,0,0,.64118-.26565L327.691,23.0413V31.732a.90661.90661,0,0,0-.90661-.90659.90663.90663,0,0,0,0-1.81325Zm0,7.25295a.90659.90659,0,1,0,0-1.81318.90667.90667,0,0,0,0-1.81333.90662.90662,0,0,0,.90661-.9066v5.04068l-.06531.06533A.90546.90546,0,0,0,326.78437,36.2651Z"/>
        </g>
        <text class="cls-2" transform="translate(259.3428 33.54536)">49’896</text>
        <g>
          <circle class="cls-3" cx="210.76515" cy="33.9321" r="0.90665"/>
          <circle class="cls-3" cx="210.76515" cy="35.74536" r="0.90661"/>
          <circle class="cls-3" cx="210.76515" cy="37.55861" r="0.90665"/>
          <circle class="cls-3" cx="212.57841" cy="33.9321" r="0.90665"/>
          <circle class="cls-3" cx="212.57841" cy="35.74536" r="0.90661"/>
          <circle class="cls-3" cx="212.57841" cy="37.55861" r="0.90665"/>
          <circle class="cls-3" cx="214.39166" cy="33.9321" r="0.90665"/>
          <circle class="cls-3" cx="214.39166" cy="35.74536" r="0.90661"/>
          <circle class="cls-3" cx="214.39166" cy="37.55861" r="0.90665"/>
          <circle class="cls-3" cx="218.01816" cy="33.9321" r="0.90665"/>
          <circle class="cls-3" cx="218.01816" cy="35.74536" r="0.90661"/>
          <circle class="cls-3" cx="218.01816" cy="37.55861" r="0.90665"/>
          <circle class="cls-3" cx="219.83141" cy="33.9321" r="0.90665"/>
          <circle class="cls-3" cx="219.83141" cy="35.74536" r="0.90661"/>
          <circle class="cls-3" cx="219.83141" cy="37.55861" r="0.90665"/>
          <circle class="cls-3" cx="221.64467" cy="33.9321" r="0.90665"/>
          <circle class="cls-3" cx="221.64467" cy="35.74536" r="0.90661"/>
          <circle class="cls-3" cx="221.64467" cy="37.55861" r="0.90665"/>
          <circle class="cls-3" cx="223.45793" cy="33.9321" r="0.90665"/>
          <circle class="cls-3" cx="223.45793" cy="35.74536" r="0.90661"/>
          <circle class="cls-3" cx="223.45793" cy="37.55861" r="0.90665"/>
          <path class="cls-3" d="M228.89768,2.20014H216.16222a.90659.90659,0,1,0,0,1.81318h4.36089a.90523.90523,0,0,0,.21493,1.78492h7.253V23.05256a2.02732,2.02732,0,0,1-2.71988-.90659.90662.90662,0,0,1-1.81324,0,.90663.90663,0,0,1-1.81326,0,.90661.90661,0,0,0-.90663.90659v.00007a2.02732,2.02732,0,0,1,2.71989.90659.90662.90662,0,0,1,1.81324,0,.90663.90663,0,0,1,1.81325,0,.90662.90662,0,0,0,.90663-.90659V38.48674h-.71394a.87577.87577,0,0,0-.38537,0h-1.42789a.87577.87577,0,0,0-.38537,0h-1.42787a.87572.87572,0,0,0-.38536,0h-1.4279a.87572.87572,0,0,0-.38536,0H220.0241a.87577.87577,0,0,0-.38537,0h-1.42789a.87572.87572,0,0,0-.38536,0H216.3976a.90755.90755,0,0,0-.19268-.02146.90667.90667,0,0,0,0-1.81333.9066.9066,0,1,0,0-1.81319.90667.90667,0,0,0,0-1.81333.90659.90659,0,1,0,0-1.81318.90663.90663,0,0,0,0-1.81326.90663.90663,0,0,0,0-1.81325h0a.90663.90663,0,0,0,0,1.81325.90663.90663,0,0,0,0,1.81326.90659.90659,0,1,0,0,1.81318.90667.90667,0,0,0,0,1.81333.9066.9066,0,1,0,0,1.81319.90667.90667,0,0,0,0,1.81333.90755.90755,0,0,0-.19268.02146h-1.42788a.87572.87572,0,0,0-.38536,0h-1.42789a.87577.87577,0,0,0-.38537,0h-1.42789a.87572.87572,0,0,0-.38536,0h-.714V20.3256h-.00071a.90593.90593,0,0,0-1.81181,0h-.00072V42.99838a.90661.90661,0,0,0,.90661.90659h19.946a.90665.90665,0,0,0,.90643-.90659V3.10673A.90662.90662,0,0,0,228.89768,2.20014ZM212.57841,42.10248a.90663.90663,0,1,1,.90662-.90659A.90661.90661,0,0,1,212.57841,42.10248Zm8.15963-.01076a2.02725,2.02725,0,0,0-2.71988.90666.90663.90663,0,1,1,0-1.81325,2.02724,2.02724,0,1,1,1.81325,0A.90661.90661,0,0,1,220.738,42.09172Zm4.53313.01076a.90663.90663,0,1,1,.90663-.90659A.9066.9066,0,0,1,225.27117,42.10248Z"/>
          <path class="cls-3" d="M218.92479,40.27846a.90664.90664,0,0,1-.90663.90667.90663.90663,0,0,0,1.81325,0A.90663.90663,0,0,1,218.92479,40.27846Z"/>
          <path class="cls-3" d="M225.27117,33.02543a.90667.90667,0,1,0,.90663.90667A.90663.90663,0,0,0,225.27117,33.02543Z"/>
          <circle class="cls-3" cx="212.57841" cy="32.11884" r="0.90661"/>
          <circle class="cls-3" cx="214.39166" cy="32.11884" r="0.90661"/>
          <circle class="cls-3" cx="218.01816" cy="32.11884" r="0.90661"/>
          <circle class="cls-3" cx="219.83141" cy="32.11884" r="0.90661"/>
          <circle class="cls-3" cx="221.64467" cy="32.11884" r="0.90661"/>
          <circle class="cls-3" cx="223.45793" cy="32.11884" r="0.90661"/>
          <path class="cls-3" d="M225.27117,31.21225a.90659.90659,0,1,0,.90663.90659A.90661.90661,0,0,0,225.27117,31.21225Z"/>
          <path class="cls-3" d="M225.27117,34.83876a.9066.9066,0,1,0,.90663.9066A.90661.90661,0,0,0,225.27117,34.83876Z"/>
          <path class="cls-3" d="M226.1778,37.55861a.90662.90662,0,1,0-.90663.90667A.90663.90663,0,0,0,226.1778,37.55861Z"/>
          <circle class="cls-3" cx="227.08442" cy="32.11884" r="0.90661"/>
          <path class="cls-3" d="M215.29829,30.30558a.90663.90663,0,1,0-.90663.90667A.90662.90662,0,0,0,215.29829,30.30558Z"/>
          <path class="cls-3" d="M218.01816,31.21225a.90663.90663,0,1,0-.90663-.90667A.90664.90664,0,0,0,218.01816,31.21225Z"/>
          <path class="cls-3" d="M219.83141,31.21225a.90663.90663,0,1,0-.90662-.90667A.90664.90664,0,0,0,219.83141,31.21225Z"/>
          <path class="cls-3" d="M221.64467,31.21225a.90663.90663,0,1,0-.90663-.90667A.90664.90664,0,0,0,221.64467,31.21225Z"/>
          <path class="cls-3" d="M223.45793,29.399a.90663.90663,0,1,0,.90663.90659A.90662.90662,0,0,0,223.45793,29.399Z"/>
          <path class="cls-3" d="M225.27117,29.399a.90663.90663,0,1,0,.90663.90659A.90661.90661,0,0,0,225.27117,29.399Z"/>
          <path class="cls-3" d="M227.08442,29.399a.90663.90663,0,1,0,.90663.90659A.90661.90661,0,0,0,227.08442,29.399Z"/>
          <path class="cls-3" d="M218.01816,29.399a.90663.90663,0,1,0-.90663-.90666A.90663.90663,0,0,0,218.01816,29.399Z"/>
          <path class="cls-3" d="M219.83141,29.399a.90663.90663,0,1,0-.90662-.90666A.90663.90663,0,0,0,219.83141,29.399Z"/>
          <path class="cls-3" d="M221.64467,29.399a.90663.90663,0,1,0-.90663-.90666A.90663.90663,0,0,0,221.64467,29.399Z"/>
          <path class="cls-3" d="M222.5513,28.49233a.90663.90663,0,1,0,.90663-.90659A.90663.90663,0,0,0,222.5513,28.49233Z"/>
          <path class="cls-3" d="M225.27117,27.58574a.90663.90663,0,1,0,.90663.90659A.9066.9066,0,0,0,225.27117,27.58574Z"/>
          <path class="cls-3" d="M227.08442,27.58574a.90663.90663,0,1,0,.90663.90659A.9066.9066,0,0,0,227.08442,27.58574Z"/>
          <path class="cls-3" d="M218.92479,26.67907a.90663.90663,0,1,0-.90663.90667A.90662.90662,0,0,0,218.92479,26.67907Z"/>
          <path class="cls-3" d="M219.83141,27.58574a.90663.90663,0,1,0-.90662-.90667A.90664.90664,0,0,0,219.83141,27.58574Z"/>
          <path class="cls-3" d="M221.64467,27.58574a.90663.90663,0,1,0-.90663-.90667A.90664.90664,0,0,0,221.64467,27.58574Z"/>
          <path class="cls-3" d="M222.5513,26.67907a.90663.90663,0,1,0,.90663-.90659A.90664.90664,0,0,0,222.5513,26.67907Z"/>
          <path class="cls-3" d="M224.36456,26.67907a.90662.90662,0,1,0,.90661-.90659A.90663.90663,0,0,0,224.36456,26.67907Z"/>
          <path class="cls-3" d="M227.08442,25.77248a.90663.90663,0,1,0,.90663.90659A.90661.90661,0,0,0,227.08442,25.77248Z"/>
          <path class="cls-3" d="M220.738,24.86581a.90663.90663,0,1,0-.90663.90667A.90662.90662,0,0,0,220.738,24.86581Z"/>
          <path class="cls-3" d="M221.64467,25.77248a.90663.90663,0,1,0-.90663-.90667A.90664.90664,0,0,0,221.64467,25.77248Z"/>
          <path class="cls-3" d="M222.5513,24.86581a.90663.90663,0,1,0,.90663-.90659A.90664.90664,0,0,0,222.5513,24.86581Z"/>
          <path class="cls-3" d="M224.36456,24.86581a.90662.90662,0,1,0,.90661-.90659A.90663.90663,0,0,0,224.36456,24.86581Z"/>
          <path class="cls-3" d="M226.1778,24.86581a.90663.90663,0,1,0,.90662-.90659A.90663.90663,0,0,0,226.1778,24.86581Z"/>
          <path class="cls-3" d="M224.36456,21.2393a.90663.90663,0,1,0-.90663.90667A.90663.90663,0,0,0,224.36456,21.2393Z"/>
          <path class="cls-3" d="M225.27117,22.146a.90663.90663,0,1,0-.90661-.90667A.90664.90664,0,0,0,225.27117,22.146Z"/>
          <path class="cls-3" d="M227.08442,20.33271a.90663.90663,0,1,0,.90663.90659A.90661.90661,0,0,0,227.08442,20.33271Z"/>
          <path class="cls-3" d="M226.1778,19.42612a.90662.90662,0,1,0-.90663.90659A.90664.90664,0,0,0,226.1778,19.42612Z"/>
          <path class="cls-3" d="M227.08442,20.33271a.90663.90663,0,1,0-.90662-.90659A.90662.90662,0,0,0,227.08442,20.33271Z"/>
          <circle class="cls-3" cx="227.08442" cy="17.59858" r="0.90661"/>
          <circle class="cls-3" cx="227.08442" cy="33.9321" r="0.90665"/>
          <circle class="cls-3" cx="227.08442" cy="35.74536" r="0.90661"/>
          <circle class="cls-3" cx="227.08442" cy="37.55861" r="0.90665"/>
          <path class="cls-3" d="M213.36259,18.43925v-.00058a.90342.90342,0,0,0,.64774-.26492l5.56831-5.56831.01765-.01765-.00178-.00176a.90064.90064,0,0,0,.23928-.73h.00315V6.211h-.00064a.9031.9031,0,0,0-.2649-.64776h0a.90322.90322,0,0,0-.64778-.26492V5.29763h-2.551v.00065a.9034.9034,0,0,0-.64763.26485l-3.581,3.581h-1.28218V7.862l3.581-3.581a.90316.90316,0,0,0,.26488-.64761h.00067v-2.551h-.00069A.90473.90473,0,0,0,213.795.16957V.169h-5.64512V.17214a.90053.90053,0,0,0-.73.23928l-.00177-.00176L204.3965,3.43127l0,.00007-1.28211,1.282,0,.00008h0l-1.28214,1.2821a.90338.90338,0,0,0-.2649.64775h-.00064v4.74646L200.55,12.40644l.00616.00615a.90186.90186,0,0,0,1.26985,1.26987l.00615.00616.06422-.06424,1.21794-1.21794a.90385.90385,0,0,0,.26556-.64109V7.01223l5.03-5.03h4.48519V3.26435l-3.581,3.581a.90317.90317,0,0,0-.2649.64775h-.00067v2.551h.00069a.90445.90445,0,0,0,.9126.91259v.00074h2.551v-.00066a.9035.9035,0,0,0,.64777-.26492l3.581-3.581h1.28213V11.596l-5.03,5.03006H208.2406a.90375.90375,0,0,0-.64109.2655l-5.586,5.586.0292.02923a.90372.90372,0,1,0,1.22377,1.22373l.02919.02922,5.3204-5.32046Z"/>
        </g>
        <text class="cls-4" transform="translate(174.556 32.36616)">396</text>
        <g>
          <path class="cls-1" d="M100.81421,31.21221a.90663.90663,0,1,0-.90663.90667A.90662.90662,0,0,0,100.81421,31.21221Z"/>
          <path class="cls-1" d="M104.4407,31.21221a.90662.90662,0,1,0-.90663.90667A.90662.90662,0,0,0,104.4407,31.21221Z"/>
          <path class="cls-1" d="M93.5612,31.21221a.90663.90663,0,1,0-.90663.90667A.90662.90662,0,0,0,93.5612,31.21221Z"/>
          <path class="cls-1" d="M97.18769,31.21221a.90663.90663,0,1,0-.90663.90667A.90662.90662,0,0,0,97.18769,31.21221Z"/>
          <path class="cls-1" d="M102.62746,29.399v0a.90663.90663,0,0,0-1.81325,0v0a.90663.90663,0,1,0,1.81325,0Z"/>
          <path class="cls-1" d="M106.254,29.399v0a.90663.90663,0,0,0-1.81326,0v0a.90663.90663,0,0,0,1.81326,0Z"/>
          <path class="cls-1" d="M91.74794,29.399v0a.90663.90663,0,0,0-1.81326,0v0a.90663.90663,0,1,0,1.81326,0Z"/>
          <path class="cls-1" d="M95.37443,29.399v0a.90662.90662,0,0,0-1.81323,0v0a.90662.90662,0,1,0,1.81323,0Z"/>
          <path class="cls-1" d="M99.001,29.399v0a.90663.90663,0,0,0-1.81326,0v0a.90663.90663,0,1,0,1.81326,0Z"/>
          <path class="cls-1" d="M102.62746,31.21221a.90663.90663,0,1,0-.90663.90667A.90663.90663,0,0,0,102.62746,31.21221Z"/>
          <path class="cls-1" d="M105.34733,30.30562a.90663.90663,0,1,0,.90663.90659A.90662.90662,0,0,0,105.34733,30.30562Z"/>
          <path class="cls-1" d="M91.74794,31.21221a.90663.90663,0,1,0-.90663.90667A.90662.90662,0,0,0,91.74794,31.21221Z"/>
          <path class="cls-1" d="M93.17426,23.57232a.90663.90663,0,1,0-.90663-.90666A.90663.90663,0,0,0,93.17426,23.57232Z"/>
          <path class="cls-1" d="M91.361,21.75906a.90663.90663,0,0,0,0,1.81326h0a.90663.90663,0,0,0,0-1.81326.90663.90663,0,0,0,0-1.81325.90663.90663,0,0,0,0-1.81326h0a.90663.90663,0,0,0,0,1.81326.90663.90663,0,0,0,0,1.81325Z"/>
          <path class="cls-1" d="M90.45439,19.03914a.90663.90663,0,1,0-.90663.90667A.90662.90662,0,0,0,90.45439,19.03914Z"/>
          <circle class="cls-1" cx="87.73451" cy="15.41266" r="0.90663"/>
          <circle class="cls-1" cx="85.92125" cy="15.41266" r="0.90663"/>
          <path class="cls-1" d="M95.37443,31.21221a.90662.90662,0,1,0-.90661.90667A.90661.90661,0,0,0,95.37443,31.21221Z"/>
          <path class="cls-1" d="M99.001,31.21221a.90663.90663,0,1,0-.90663.90667A.90662.90662,0,0,0,99.001,31.21221Z"/>
          <circle class="cls-1" cx="101.72083" cy="42.09175" r="0.90663"/>
          <path class="cls-1" d="M104.4407,40.2785a.90662.90662,0,1,0-.90663.90663A.90663.90663,0,0,0,104.4407,40.2785Z"/>
          <path class="cls-1" d="M104.4407,42.09175a.90662.90662,0,1,0-.90663.90663A.90662.90662,0,0,0,104.4407,42.09175Z"/>
          <circle class="cls-1" cx="108.97384" cy="42.09175" r="0.90663"/>
          <circle class="cls-1" cx="105.34733" cy="42.09175" r="0.90663"/>
          <circle class="cls-1" cx="107.16059" cy="40.2785" r="0.90663"/>
          <circle class="cls-1" cx="107.16059" cy="42.09175" r="0.90663"/>
          <path class="cls-1" d="M137.07925,31.21221a.90663.90663,0,1,0-.90663.90667A.90662.90662,0,0,0,137.07925,31.21221Z"/>
          <path class="cls-1" d="M140.70576,31.21221a.90663.90663,0,1,0-.90662.90667A.90661.90661,0,0,0,140.70576,31.21221Z"/>
          <path class="cls-1" d="M129.82624,31.21221a.90663.90663,0,1,0-.90663.90667A.90662.90662,0,0,0,129.82624,31.21221Z"/>
          <path class="cls-1" d="M133.45275,31.21221a.90663.90663,0,1,0-.90662.90667A.90661.90661,0,0,0,133.45275,31.21221Z"/>
          <path class="cls-1" d="M131.6395,29.399v0a.90663.90663,0,0,0-1.81326,0v0a.90663.90663,0,1,0,1.81326,0Z"/>
          <path class="cls-1" d="M135.266,29.399v0a.90662.90662,0,0,0-1.81324,0v0a.90662.90662,0,1,0,1.81324,0Z"/>
          <path class="cls-1" d="M138.89251,31.21221a.90663.90663,0,1,0-.90663.90667A.90662.90662,0,0,0,138.89251,31.21221Z"/>
          <path class="cls-1" d="M141.61239,30.30562a.90663.90663,0,1,0,.90663.90659A.90662.90662,0,0,0,141.61239,30.30562Z"/>
          <path class="cls-1" d="M131.6395,31.21221a.90663.90663,0,1,0-.90663.90667A.90662.90662,0,0,0,131.6395,31.21221Z"/>
          <path class="cls-1" d="M135.266,31.21221a.90662.90662,0,1,0-.90661.90667A.90661.90661,0,0,0,135.266,31.21221Z"/>
          <path class="cls-1" d="M125.32133,24.83765a.90661.90661,0,1,0,.90663.90659A.90661.90661,0,0,0,125.32133,24.83765Z"/>
          <path class="cls-1" d="M121.69484,24.83765h0a.90661.90661,0,1,0,0,1.81322h0a.90661.90661,0,1,0,0-1.81322Z"/>
          <path class="cls-1" d="M118.06833,24.83765a.90661.90661,0,1,0,.90662.90659A.90661.90661,0,0,0,118.06833,24.83765Z"/>
          <path class="cls-1" d="M114.44181,24.83765a.90661.90661,0,1,0,.90663.90659A.90663.90663,0,0,0,114.44181,24.83765Z"/>
          <path class="cls-1" d="M110.81532,24.83765a.90661.90661,0,1,0,.90662.90659A.90662.90662,0,0,0,110.81532,24.83765Z"/>
          <path class="cls-1" d="M107.1888,24.83765a.90661.90661,0,1,0,.90663.90659A.90663.90663,0,0,0,107.1888,24.83765Z"/>
          <path class="cls-1" d="M103.56231,24.83765a.90661.90661,0,1,0,.90663.90659A.90662.90662,0,0,0,103.56231,24.83765Z"/>
          <path class="cls-1" d="M99.93579,24.83765a.90661.90661,0,1,0,.90663.90659A.90662.90662,0,0,0,99.93579,24.83765Z"/>
          <path class="cls-1" d="M149.50649,26.94465l.0015-.0015-5.43975-5.43977-.00152.00153a.9038.9038,0,0,0-.64107-.26557H98.46985l-5.1741-5.17412-.0002-.00019L91.48249,14.252l-.0002-.00018-1.81315-1.81315a.90382.90382,0,0,0-.64109-.26554H79.96179a.90664.90664,0,0,0-.90663.90663h0a.9038.9038,0,0,0,.26556.64109l3.62646,3.62644.00009.00007,1.81318,1.81318.00006.00008,2.06737,2.0674v2.75164l-1.55221,1.55215.001.001a.90077.90077,0,0,0-.32846.693v.06189H84.942c.00143-.02087.00624-.04072.00624-.06189a.90663.90663,0,1,0-1.81325,0c0,.02117.00481.041.00624.06189H83.135v3.62652h.00624a.90222.90222,0,0,0,1.80077,0h.00624v-.06193a.9037.9037,0,0,0,.26554.64109L86.976,32.25562l.051.051,1.37269,1.37267.01276-.01274a.90385.90385,0,0,0,.64109.26558H104.9718l-5.70531,5.70527a.90377.90377,0,0,0-.26554.64109V43.905a.90665.90665,0,0,0,.90663.90663h12.69276a.90384.90384,0,0,0,.64109-.26554l3.6264-3.62644.0002-.00018,1.54761-1.54761h5.06422a.90663.90663,0,0,0,.90663-.90663v-4.5331h20.8524a.9037.9037,0,0,0,.64109-.26558l3.6264-3.6264a.90389.90389,0,0,0,.26565-.64117V27.58574A.90378.90378,0,0,0,149.50649,26.94465Zm-10.614-3.89206h4.16059l1.53042,1.5304.03158.0316,1.78166,1.78166.03164.03164.25123.25122h-8.31822l-1.28216-1.28218V23.05259Zm4.53314,7.253h0a.90663.90663,0,0,0,0,1.81326H127.10637a.90663.90663,0,0,0,0-1.81326.90662.90662,0,0,0,.90661-.90663v0a.90661.90661,0,0,0-.90661-.9066h0a.90661.90661,0,0,0-.90661.9066v0a.90662.90662,0,0,0,.90661.90663.90663.90663,0,0,0,0,1.81326h-1.43771l.26545-.26547a.90662.90662,0,1,0-1.28216-1.28214l-3.62632,3.62629-.0002.00022-5.43955,5.43956-.0002.00018-.3542.3542a.90489.90489,0,1,0-1.1627,1.16268l-.62153.62153a.90489.90489,0,1,0-1.1627,1.16272l-.05973.05973H110.7871a.90663.90663,0,0,0,0-1.81325.90663.90663,0,0,0,0-1.81326h0a.90663.90663,0,0,0,0,1.81326.90663.90663,0,0,0,0,1.81325h-9.97287V40.65405l1.94588-1.94587a.90635.90635,0,1,0,1.19106-1.1911l.59315-.59315a.90636.90636,0,0,0,.832.54763h0a.90636.90636,0,0,0,.359-1.73869l.59316-.59315a.90635.90635,0,1,0,1.19108-1.19111l.282-.282.00017-.00014.311-.311a.90633.90633,0,0,0,.832.54759h0a.90636.90636,0,0,0,.359-1.73869l.311-.311.0002-.00018.0549-.05493-.00526-.00524a.89882.89882,0,0,0,.18679-.3639.90663.90663,0,1,0,0-.43382.89886.89886,0,0,0-1.45844-.47395l-.00525-.00523-.0549.05489-.0002.00022-.32517.32516a.90489.90489,0,1,0-1.16271,1.16268l-.05973.05977H89.4036l-.05973-.05977a.90488.90488,0,1,0-1.16272-1.16268l-1.41967-1.41969V26.61033L88.3424,25.0294l-.00317-.00315a.89938.89938,0,0,0,.29566-.60923h.00624V22.92658a.90489.90489,0,1,0,1.09875-1.18887.91387.91387,0,1,0-.44614-.01922.90572.90572,0,0,0-.65261.56246V20.79051h-.00624a.89911.89911,0,0,0-.32313-.63186l.00557-.00557-.267-.267a.90487.90487,0,1,0-1.1627-1.16268l-.65056-.65058a.90439.90439,0,0,0,.59083-.84686.90663.90663,0,1,0,1.81325,0,.90663.90663,0,1,0,1.81326,0v0a.90663.90663,0,0,0-1.81326,0,.90663.90663,0,0,0-1.81325,0,.90489.90489,0,0,0-1.75353-.31579l-.65054-.65054a.90488.90488,0,1,0-1.1627-1.16268l-1.11053-1.11057h1.07411a.9019.9019,0,0,0,1.63385,0h.24578a.9019.9019,0,0,0,1.63385,0h1.91435L90.20015,15.534l.00016.00019,1.81311,1.81311.00011.00011L93.8267,19.1605l.00007.00008,3.54,3.54.0083-.00831a.902.902,0,0,0,.71927.36031H135.266v2.71989a.89843.89843,0,0,0,.21583.58081l-.00527.00527,1.92324,1.92323.00528-.00527a.89833.89833,0,0,0,.58081.21584h9.97289v.53108l-3.09541,3.09544h-1.43771a.90663.90663,0,0,0,0-1.81326Z"/>
        </g>
        <text class="cls-2" transform="translate(61.18433 32.63838)">18</text>
        <text class="cls-5" transform="translate(44.43878 33.02558)">=</text>
        <text class="cls-5" transform="translate(161.33261 33.02558)">=</text>
        <text class="cls-5" transform="translate(243.4971 33.02558)">=</text>
        <g>
          <path class="cls-3" d="M14.18842,42.33917l-.00193-.01912V38.73177l.00193-.01912-.00193-.01911v-1.7751l.00193-.019-.00193-.01905V35.10526l.00193-.01912-.00193-.019V33.292l.00193-.01912-.00193-.019v-.06248H14.1802a.90167.90167,0,0,0-1.79682,0h-.0063v.06248l-.00192.019.00192.01912v1.7751l-.00192.019.00192.01912v1.77509l-.00192.01905.00192.019v1.7751l-.00192.01911.00192.01912v3.58828l-.00192.01912a.90663.90663,0,1,0,1.81326,0Z"/>
          <path class="cls-3" d="M24.16131,34.17955a.90663.90663,0,1,0,.90663.90659A.90662.90662,0,0,0,24.16131,34.17955Z"/>
          <circle class="cls-3" cx="24.16131" cy="36.8994" r="0.90661"/>
          <circle class="cls-3" cx="24.16131" cy="38.71265" r="0.90665"/>
          <circle class="cls-3" cx="24.16131" cy="40.52591" r="0.90661"/>
          <circle class="cls-3" cx="24.16131" cy="42.33917" r="0.90665"/>
          <path class="cls-3" d="M27.78781,35.9928a.90663.90663,0,1,0-.90663-.90666A.90662.90662,0,0,0,27.78781,35.9928Z"/>
          <circle class="cls-3" cx="27.78781" cy="36.8994" r="0.90661"/>
          <circle class="cls-3" cx="27.78781" cy="38.71265" r="0.90665"/>
          <circle class="cls-3" cx="27.78781" cy="40.52591" r="0.90661"/>
          <circle class="cls-3" cx="27.78781" cy="42.33917" r="0.90665"/>
          <path class="cls-3" d="M28.69443,35.08614a.90663.90663,0,1,0,.90663-.90659A.90663.90663,0,0,0,28.69443,35.08614Z"/>
          <circle class="cls-3" cx="29.60106" cy="36.8994" r="0.90661"/>
          <circle class="cls-3" cx="29.60106" cy="38.71265" r="0.90665"/>
          <circle class="cls-3" cx="29.60106" cy="40.52591" r="0.90661"/>
          <circle class="cls-3" cx="29.60106" cy="42.33917" r="0.90665"/>
          <path class="cls-3" d="M30.50769,35.08614a.90663.90663,0,1,0,.90663-.90659A.90663.90663,0,0,0,30.50769,35.08614Z"/>
          <circle class="cls-3" cx="31.41432" cy="36.8994" r="0.90661"/>
          <circle class="cls-3" cx="31.41432" cy="38.71265" r="0.90665"/>
          <circle class="cls-3" cx="31.41432" cy="40.52591" r="0.90661"/>
          <circle class="cls-3" cx="31.41432" cy="42.33917" r="0.90665"/>
          <path class="cls-3" d="M24.16131,32.36629a.90663.90663,0,1,0,.90663.90659A.90662.90662,0,0,0,24.16131,32.36629Z"/>
          <path class="cls-3" d="M27.78781,34.17955a.90663.90663,0,1,0-.90663-.90667A.90663.90663,0,0,0,27.78781,34.17955Z"/>
          <path class="cls-3" d="M28.69443,33.27288a.90663.90663,0,1,0,.90663-.90659A.90664.90664,0,0,0,28.69443,33.27288Z"/>
          <path class="cls-3" d="M30.50769,33.27288a.90663.90663,0,1,0,.90663-.90659A.90664.90664,0,0,0,30.50769,33.27288Z"/>
          <path class="cls-3" d="M10.5619,31.45963a.90663.90663,0,1,0,.90663-.9066A.90665.90665,0,0,0,10.5619,31.45963Z"/>
          <path class="cls-3" d="M20.5348,30.553a.90663.90663,0,1,0,.90663.9066A.90662.90662,0,0,0,20.5348,30.553Z"/>
          <path class="cls-3" d="M24.16131,30.553a.90663.90663,0,1,0,.90663.9066A.90662.90662,0,0,0,24.16131,30.553Z"/>
          <path class="cls-3" d="M27.78781,32.36629a.90663.90663,0,1,0-.90663-.90666A.90663.90663,0,0,0,27.78781,32.36629Z"/>
          <path class="cls-3" d="M28.69443,31.45963a.90663.90663,0,1,0,.90663-.9066A.90663.90663,0,0,0,28.69443,31.45963Z"/>
          <path class="cls-3" d="M31.41432,32.36629a.90663.90663,0,1,0-.90663-.90666A.90663.90663,0,0,0,31.41432,32.36629Z"/>
          <path class="cls-3" d="M21.44143,29.64637c0-.013-.0033-.0252-.00385-.03809v-1.737c.00055-.01289.00385-.02505.00385-.03809,0-.01311-.0033-.02526-.00385-.03815V26.058c.00055-.01289.00385-.025.00385-.03816,0-.013-.0033-.02519-.00385-.03808V22.42044c.00055-.01289.00385-.02505.00385-.03816,0-.013-.0033-.02519-.00385-.03816v-.1248H21.425a.90345.90345,0,0,0-.25168-.48025l.00022-.00022L19.365,19.93035l-.00022.00015a.90346.90346,0,0,0-.64321-.26807H17.01837a.90241.90241,0,0,0,.531-.25444l.00236.00234,1.80856-1.80857-.00281-.00278a.90319.90319,0,0,0,.27069-.64534c0-.02541-.00542-.04929-.00747-.07412h.00747v-1.6667h-.00731c.002-.02431.00731-.0476.00731-.07243a.90153.90153,0,0,0-.29044-.66167l-1.76787-1.76785a.90152.90152,0,0,0-.66156-.2904H15.095a.90194.90194,0,0,0-.65619.28388l-1.77973,1.77971a.902.902,0,0,0-.284.65633c0,.02483.00535.04812.00731.07243h-.00731v1.6667h.00747c-.00205.02483-.00747.04871-.00747.07412a.903.903,0,0,0,.2705.64512l-.00335.00337,1.80855,1.80857.00293-.00293a.90262.90262,0,0,0,.53119.25466h-1.7126v.001a.89913.89913,0,0,0-.58568.22661l-.00048-.00052-.005.00506a.90431.90431,0,0,0-.07392.0739L10.87767,21.698l.00093.001a.90064.90064,0,0,0-.30025.52031h-.01451v.1437l-.00194.01926.00194.01926v3.59913l-.00194.01918.00194.01927v1.7748l-.00194.01926.00194.01919v1.77481l-.00194.01919a.90663.90663,0,1,0,1.81326,0l-.00192-.019v-1.7751l.00192-.01905-.00192-.01911V26.039l.00192-.01912-.00192-.019v-3.234l1.29117-1.29111H18.346l1.28216,1.2821v6.87752h.00112l-.00112.01106a.90663.90663,0,1,0,1.81326,0ZM15.4738,14.23372h1.05461l1.28652,1.28657v1.06246l-1.27745,1.27749H15.46473l-1.27631-1.27632v-1.0648Z"/>
          <path class="cls-3" d="M24.16131,28.73978a.90663.90663,0,1,0,.90663.90659A.90661.90661,0,0,0,24.16131,28.73978Z"/>
          <path class="cls-3" d="M27.78781,30.553a.90663.90663,0,1,0-.90663-.90666A.90662.90662,0,0,0,27.78781,30.553Z"/>
          <path class="cls-3" d="M28.69443,29.64637a.90663.90663,0,1,0,.90663-.90659A.90663.90663,0,0,0,28.69443,29.64637Z"/>
          <path class="cls-3" d="M24.16131,26.92652a.90663.90663,0,1,0,.90663.90666A.90663.90663,0,0,0,24.16131,26.92652Z"/>
          <path class="cls-3" d="M26.88118,27.83318a.90663.90663,0,1,0,.90663-.90666A.90663.90663,0,0,0,26.88118,27.83318Z"/>
          <path class="cls-3" d="M29.60106,28.73978a.90663.90663,0,1,0-.90663-.9066A.90662.90662,0,0,0,29.60106,28.73978Z"/>
          <path class="cls-3" d="M13.28179,25.11326a.90663.90663,0,1,0,.90663.90659A.90662.90662,0,0,0,13.28179,25.11326Z"/>
          <path class="cls-3" d="M15.095,25.11326a.90663.90663,0,1,0,.90663.90659A.90661.90661,0,0,0,15.095,25.11326Z"/>
          <path class="cls-3" d="M16.9083,25.11326a.90663.90663,0,1,0,.90663.90659A.90662.90662,0,0,0,16.9083,25.11326Z"/>
          <path class="cls-3" d="M18.72156,25.11326h0a.90663.90663,0,0,0,0,1.81326h0a.90663.90663,0,0,0,0-1.81326Z"/>
          <path class="cls-3" d="M24.16131,25.11326a.90663.90663,0,1,0,.90663.90659A.90662.90662,0,0,0,24.16131,25.11326Z"/>
          <path class="cls-3" d="M26.88118,26.01985a.90663.90663,0,1,0,.90663-.90659A.90664.90664,0,0,0,26.88118,26.01985Z"/>
          <path class="cls-3" d="M24.16131,25.11326a.90663.90663,0,1,0-.90663-.90659A.90662.90662,0,0,0,24.16131,25.11326Z"/>
          <path class="cls-3" d="M23.25468,35.08614a.90663.90663,0,1,0-.90663.90666A.90662.90662,0,0,0,23.25468,35.08614Z"/>
          <circle class="cls-3" cx="22.34805" cy="36.8994" r="0.90661"/>
          <circle class="cls-3" cx="22.34805" cy="38.71265" r="0.90665"/>
          <circle class="cls-3" cx="22.34805" cy="40.52591" r="0.90661"/>
          <circle class="cls-3" cx="22.34805" cy="42.33917" r="0.90665"/>
          <path class="cls-3" d="M23.25468,33.27288a.90663.90663,0,1,0-.90663.90667A.90662.90662,0,0,0,23.25468,33.27288Z"/>
          <path class="cls-3" d="M23.25468,31.45963a.90663.90663,0,1,0-.90663.90666A.90662.90662,0,0,0,23.25468,31.45963Z"/>
          <path class="cls-3" d="M23.25468,29.64637a.90663.90663,0,1,0-.90663.90666A.90661.90661,0,0,0,23.25468,29.64637Z"/>
          <path class="cls-3" d="M22.34805,28.73978a.90663.90663,0,1,0-.90662-.9066A.90662.90662,0,0,0,22.34805,28.73978Z"/>
          <path class="cls-3" d="M22.34805,26.92652a.90663.90663,0,1,0-.90662-.90667A.90664.90664,0,0,0,22.34805,26.92652Z"/>
          <path class="cls-3" d="M23.25468,24.20667a.90663.90663,0,1,0-.90663.90659A.90663.90663,0,0,0,23.25468,24.20667Z"/>
          <path class="cls-3" d="M27.78781,25.11326a.90663.90663,0,1,0-.90663-.90659A.90661.90661,0,0,0,27.78781,25.11326Z"/>
          <path class="cls-3" d="M25.97455,23.3a.90663.90663,0,0,0,0,1.81325.90663.90663,0,0,0,0,1.81326.90663.90663,0,0,0,0,1.81326.90663.90663,0,0,0,0,1.81325.90663.90663,0,0,0,0,1.81326.90663.90663,0,0,0,0,1.81326.90663.90663,0,0,0,0,1.81325.9066.9066,0,1,0,0,1.81319.90667.90667,0,0,0,0,1.81333.90659.90659,0,1,0,0,1.81318.90667.90667,0,0,0,0,1.81333.90661.90661,0,0,0-.90661.90659.90663.90663,0,0,0-1.81326,0,.90663.90663,0,0,0-1.81325,0,.90662.90662,0,0,0-.90663-.90659l-.00471.00044v-.00044H18.72156a.90663.90663,0,0,0,.90661-.90666l-.00192-.01912V38.73177l.00192-.01912-.00192-.01911v-1.7751l.00192-.019-.00192-.01905V35.10526l.00192-.01912-.00192-.019V33.292l.00192-.01912-.00192-.019v-.06248H19.62a.90356.90356,0,0,0-.89839-.82507h0a.90356.90356,0,0,0-.89839.82507h-.0063v.06248l-.00192.019.00192.01912v1.7751l-.00192.019.00192.01912v1.77509l-.00192.01905.00192.019v1.7751l-.00192.01911.00192.01912v3.58828l-.00192.01912a.90663.90663,0,0,0,.90661.90666H16.913v.00044l-.00471-.00044a.90662.90662,0,0,0-.90663.90659.90661.90661,0,0,0-.90663-.90659l-.00941.00088v-.00088h-3.6171a.90663.90663,0,0,0-.90663.90659h0a.90663.90663,0,0,0,.90663.90659h3.6171v-.001l.00941.001a.90661.90661,0,0,0,.90663-.90659.90661.90661,0,0,0,.90663.90659l.00471-.00043V45.059h3.61708v-.00043l.00471.00043a.90661.90661,0,0,0,.90663-.90659.90663.90663,0,0,0,1.81325,0,.90663.90663,0,0,0,1.81326,0,.90661.90661,0,0,0,.90661.90659h0a.90661.90661,0,0,0,.90661-.90659.90663.90663,0,0,0,1.81325,0,.90663.90663,0,0,0,1.81326,0,.90663.90663,0,0,0,1.81326,0,.90663.90663,0,0,0,1.81326,0h0a.90663.90663,0,0,0-1.81326,0,.90663.90663,0,0,0-1.81326,0,.90663.90663,0,0,0-1.81326,0,.90663.90663,0,0,0-1.81325,0,.90661.90661,0,0,0-.90661-.90659.90667.90667,0,0,0,0-1.81333.90659.90659,0,1,0,0-1.81318.90667.90667,0,0,0,0-1.81333.9066.9066,0,1,0,0-1.81319.90663.90663,0,0,0,0-1.81325.90663.90663,0,0,0,0-1.81326.90663.90663,0,0,0,0-1.81326.90663.90663,0,0,0,0-1.81325.90663.90663,0,0,0,0-1.81326.90663.90663,0,0,0,0-1.81326.90663.90663,0,0,0,0-1.81325.90663.90663,0,0,0,0-1.81326h0a.90663.90663,0,0,0,0,1.81326Z"/>
          <path class="cls-3" d="M27.79568,5.996h-.00787v.98466h-.90663a.90667.90667,0,0,0,0,1.81333h.90663v.9066a.90663.90663,0,0,0,1.81325,0c0-.013-.00329-.0252-.00384-.03816V8.794h.91047a.90667.90667,0,0,0,0-1.81333h-.91047V6.11226c.00055-.013.00384-.02512.00384-.03816s-.00329-.02519-.00384-.03816V5.996h-.004a.90173.90173,0,0,0-1.79751,0Z"/>
          <path class="cls-3" d="M34.13421,4.26085h0a.90663.90663,0,0,0-.90663-.9066H24.16131a.90662.90662,0,0,0-.90663.9066h0L23.2566,4.28v1.7751l-.00192.019.00192.01905V7.86824l-.00192.01912.00192.01912V9.68157l-.00192.01905.00192.019v1.7751l-.00192.01911.00192.01912v1.775l-.00192.01912.00192.019v1.7751l-.00192.01912.00192.019v1.7751l-.00192.01911.00192.01905v1.77509l-.00192.01912.00192.019V20.561l-.00192.01912h0l.00192.019v1.7751l-.00192.019a.90663.90663,0,1,0,1.81326,0l-.00192-.019V20.5992l.00192-.019h0L25.066,20.561v-1.7751l.00192-.019-.00192-.01912V16.97269l.00192-.01905-.00192-.01911v-1.7751l.00192-.019-.00192-.01912v-1.7751l.00192-.019L25.066,13.308v-.88754h8.16156a.89694.89694,0,0,0,.85341-1.2014V9.99542a.8431.8431,0,0,0,0-.5896V8.18216a.8431.8431,0,0,0,0-.5896V6.3689a.8431.8431,0,0,0,0-.5896V4.55565A.89787.89787,0,0,0,34.13421,4.26085Zm-8.15966,6.34636H25.066V9.71966l.00192-.019L25.066,9.68157V7.90648l.00192-.01912L25.066,7.86824V6.09315l.00192-.01905-.00192-.019V5.16751H32.2716v5.4397h-6.297Z"/>
          <path class="cls-3" d="M33.22758,39.61932a.90541.90541,0,0,0,.02906-1.8104.90663.90663,0,1,0-.05812,0,.90541.90541,0,0,0,.02906,1.8104Z"/>
          <circle class="cls-3" cx="33.22758" cy="40.52591" r="0.90661"/>
          <circle class="cls-3" cx="33.22758" cy="42.33917" r="0.90665"/>
        </g>
        <text class="cls-4" transform="translate(0.00012 35.08613)">1</text>
      </g>
    </g>
  </g>
</svg>
